<svg width="31" height="25" viewBox="0 0 31 25" fill="none" xmlns="http://www.w3.org/2000/svg">
<path d="M2.90625 0C1.30176 0 0 1.39974 0 3.125C0 4.10807 0.429883 5.03255 1.1625 5.625L14.3375 16.25C15.0277 16.8034 15.9723 16.8034 16.6625 16.25L29.8375 5.625C30.5701 5.03255 31 4.10807 31 3.125C31 1.39974 29.6982 0 28.0938 0H2.90625ZM0 7.29167V20.8333C0 23.1315 1.7377 25 3.875 25H27.125C29.2623 25 31 23.1315 31 20.8333V7.29167L17.825 17.9167C16.4445 19.0299 14.5555 19.0299 13.175 17.9167L0 7.29167Z" fill="white"/>
</svg>
