<svg width="30" height="31" viewBox="0 0 30 31" fill="none" xmlns="http://www.w3.org/2000/svg">
<path d="M15 0.484375C6.71371 0.484375 0 7.20508 0 15.5C0 23.7949 6.71371 30.5156 15 30.5156C23.2863 30.5156 30 23.7949 30 15.5C30 7.20508 23.2863 0.484375 15 0.484375ZM21.9556 10.6986C21.7319 13.0721 20.752 18.8361 20.256 21.4941C20.0444 22.6203 19.6331 22.9957 19.2339 23.032C18.3629 23.1107 17.7036 22.4568 16.8569 21.8998C15.5383 21.034 14.7883 20.4951 13.5121 19.6475C12.0302 18.6727 12.9919 18.1338 13.8327 17.2559C14.0565 17.0258 17.8911 13.5322 17.9637 13.2174C17.9758 13.175 17.9819 13.0297 17.8911 12.951C17.8004 12.8723 17.6734 12.9025 17.5827 12.9207C17.4496 12.949 15.3407 14.3436 11.256 17.1045C10.6593 17.5162 10.1169 17.716 9.62903 17.7039C9.09072 17.6918 8.0625 17.4012 7.29435 17.1529C6.35685 16.8502 5.60685 16.6867 5.67339 16.166C5.70565 15.8956 6.07863 15.6191 6.79234 15.3365C11.1633 13.4313 14.0786 12.174 15.5383 11.5645C19.7056 9.83281 20.5706 9.53008 21.1331 9.51797C21.2601 9.51797 21.5323 9.54824 21.7137 9.69355C21.8321 9.79778 21.9076 9.94238 21.9254 10.0992C21.9581 10.2972 21.9683 10.4983 21.9556 10.6986Z" fill="white"/>
</svg>
